<?xml version="1.0" standalone="no"?>
<!DOCTYPE svg PUBLIC "-//W3C//DTD SVG 20010904//EN"
 "http://www.w3.org/TR/2001/REC-SVG-20010904/DTD/svg10.dtd">
<svg version="1.0" xmlns="http://www.w3.org/2000/svg"
 width="450.000000pt" height="450.000000pt" viewBox="0 0 450.000000 450.000000"
 preserveAspectRatio="xMidYMid meet">
<metadata>
Created by potrace 1.11, written by Peter Selinger 2001-2013
</metadata>
<g transform="translate(0.000000,450.000000) scale(0.100000,-0.100000)"
fill="#000000" stroke="none">
<path d="M2820 4468 c-17 -29 -20 -51 -20 -180 l0 -148 -346 0 c-294 0 -351
-2 -379 -16 -58 -27 -65 -56 -65 -283 l0 -201 -502 0 -503 0 -40 -23 c-22 -13
-49 -40 -62 -62 -22 -39 -23 -49 -23 -287 l0 -248 -373 0 c-367 0 -373 0 -417
-22 -25 -13 -55 -38 -67 -57 l-23 -34 0 -1401 c0 -1380 0 -1401 20 -1434 11
-18 34 -41 52 -52 33 -20 54 -20 1435 -20 l1402 0 37 32 c64 56 64 57 64 473
l0 375 251 0 c237 0 253 1 289 21 21 12 47 38 59 59 21 37 21 47 21 554 l0
516 205 0 205 0 32 29 33 29 3 356 3 356 165 0 166 0 29 29 29 29 0 795 c0
788 0 794 -21 821 l-20 26 -810 0 -809 0 -20 -32z m1608 -30 c7 -7 12 -43 12
-90 l0 -78 -605 0 c-384 0 -605 4 -605 10 0 5 6 7 14 4 8 -3 24 4 35 15 44 44
13 105 -51 99 -31 -3 -33 -5 -36 -46 -3 -39 -4 -41 -19 -26 -13 13 -14 20 -5
34 8 14 8 25 -1 44 -28 61 -62 22 -50 -59 7 -54 26 -74 54 -57 16 10 19 9 19
-3 0 -13 -25 -15 -165 -15 l-165 0 0 78 c0 47 5 83 12 90 17 17 1539 17 1556
0z m-1178 -94 c0 -8 -5 -12 -10 -9 -6 4 -8 11 -5 16 9 14 15 11 15 -7z m1190
-805 c0 -599 -2 -667 -16 -673 -9 -3 -83 -6 -165 -6 l-149 0 0 60 0 60 103 0
c67 0 107 4 115 12 15 15 16 132 2 159 -10 17 -22 19 -115 19 -86 0 -105 3
-105 15 0 11 21 15 108 17 l107 3 0 90 0 90 -107 3 -108 3 0 104 0 104 103 3
102 3 0 90 0 90 -100 5 -100 5 -4 155 c-1 85 -5 158 -7 161 -11 19 -118 23
-656 26 l-588 3 0 33 0 32 790 0 790 0 0 -666z m-416 515 c12 -12 16 -38 16
-115 l0 -99 -745 0 c-490 0 -745 3 -745 10 0 6 9 10 19 10 25 0 61 46 61 77 0
38 -40 71 -82 68 -51 -3 -58 -11 -58 -60 0 -35 -3 -43 -15 -39 -18 7 -20 51
-2 57 16 5 -23 82 -43 82 -34 0 -45 -78 -23 -157 6 -23 49 -34 68 -18 12 10
15 9 15 -9 0 -21 -3 -21 -205 -21 l-205 0 0 95 c0 152 -122 135 984 135 845 0
946 -2 960 -16z m-1454 -119 c0 -14 -4 -25 -10 -25 -5 0 -10 11 -10 25 0 14 5
25 10 25 6 0 10 -11 10 -25z m1470 -992 c0 -803 0 -823 -19 -833 -12 -6 -96
-10 -205 -10 l-186 0 0 75 0 75 128 0 c86 0 132 4 140 12 16 16 16 190 0 206
-8 8 -54 12 -140 12 l-128 0 0 25 0 25 128 0 c86 0 132 4 140 12 8 8 12 45 12
99 0 120 1 119 -156 119 l-124 0 0 130 0 129 128 3 127 3 3 99 c2 64 -1 103
-9 112 -9 11 -41 14 -130 14 l-119 0 0 194 c0 156 -3 196 -14 206 -15 12 -132
9 -224 -5 -37 -6 -46 -4 -58 14 -15 21 -17 21 -559 21 -534 0 -544 0 -555 -20
-9 -17 -21 -20 -75 -20 l-65 0 0 58 c0 32 2 61 4 63 2 2 443 4 980 4 l976 0 0
-822z m220 750 l0 -28 -75 3 c-72 3 -75 5 -75 28 0 23 2 24 75 24 l75 0 0 -27z
m-737 -171 c15 -13 17 -34 17 -149 l0 -133 -975 0 c-536 0 -975 2 -975 4 0 2
-3 12 -7 22 -5 13 -3 16 10 11 50 -19 107 58 91 122 -11 43 -62 78 -92 62 -10
-5 -24 -6 -32 -1 -8 5 -22 4 -32 -1 -16 -8 -18 -24 -18 -114 l0 -105 -265 0
-265 0 -1 38 c-4 114 2 236 12 248 6 7 20 14 32 16 12 2 576 2 1252 0 1089 -4
1232 -6 1248 -20z m-1909 -137 c6 -17 -2 -45 -14 -45 -4 0 -10 8 -12 18 -9 34
13 59 26 27z m2656 -87 l0 -33 -80 3 c-77 3 -80 5 -80 27 0 23 3 24 78 28 42
1 78 4 80 5 1 1 2 -13 2 -30z m-450 -163 l0 -35 -95 0 -95 0 0 28 c0 16 3 32
7 35 3 4 46 7 95 7 l88 0 0 -35z m-280 -1055 c0 -1057 0 -1070 -20 -1090 -19
-19 -33 -20 -265 -20 l-245 0 0 100 0 100 156 0 c88 0 164 4 175 10 17 10 19
22 19 138 0 86 -4 132 -12 140 -8 8 -62 12 -175 12 l-163 0 0 30 0 30 165 0
c152 0 165 1 175 19 5 11 10 71 10 135 0 151 7 146 -197 146 l-153 0 0 175 0
175 153 0 c106 0 157 4 165 12 17 17 17 249 0 266 -8 8 -59 12 -165 12 l-153
0 0 188 c0 103 -3 218 -7 255 -9 98 -12 99 -229 105 -96 3 -177 9 -180 13 -8
13 -1421 12 -1429 -1 -3 -5 -46 -10 -96 -10 l-89 0 0 65 0 65 1280 0 1280 0 0
-1070z m730 990 l0 -31 -77 3 c-77 3 -78 3 -81 31 l-3 27 80 0 81 0 0 -30z
m-1385 -175 c24 -23 25 -28 25 -170 l0 -145 -1069 0 c-965 0 -1069 2 -1075 16
-10 27 -7 31 22 26 62 -9 109 84 77 151 -19 40 -52 56 -110 52 -75 -4 -75 -4
-75 -131 l0 -114 -295 0 -295 0 0 145 c0 142 1 147 25 170 l24 25 1361 0 1361
0 24 -25z m-2091 -151 c8 -20 -2 -54 -14 -54 -11 0 -17 29 -12 53 5 22 18 22
26 1z m3036 -104 l0 -40 -100 0 -100 0 0 40 0 40 100 0 100 0 0 -40z m-920
-1335 c0 -1162 0 -1175 -20 -1195 -20 -20 -33 -20 -1389 -20 l-1370 0 -20 26
c-21 27 -21 28 -21 1195 l0 1169 1410 0 1410 0 0 -1175z m920 1060 l0 -35
-100 0 -100 0 0 35 0 35 100 0 100 0 0 -35z m-580 -46 l0 -49 -120 0 -120 0 0
50 0 49 113 3 c61 2 115 2 120 0 4 -2 7 -25 7 -53z m10 -639 l0 -50 -125 0
-125 0 0 50 0 50 125 0 125 0 0 -50z m10 -360 l0 -50 -130 0 -130 0 0 50 0 50
130 0 130 0 0 -50z"/>
<path d="M2922 4428 c-17 -17 -15 -123 3 -138 21 -18 35 -4 36 38 2 34 2 35 6
7 10 -68 53 -64 53 4 0 40 -14 61 -41 61 -9 0 -19 9 -22 20 -6 23 -18 25 -35
8z"/>
<path d="M3049 4423 c-18 -21 -15 -112 5 -131 8 -9 22 -11 35 -7 24 7 28 33 6
41 -18 7 -20 31 -3 36 9 3 7 14 -5 41 -21 43 -20 42 -38 20z"/>
<path d="M3404 4429 c-13 -22 -33 -120 -27 -135 15 -39 49 24 55 102 3 37 -13
56 -28 33z"/>
<path d="M3459 4398 c-15 -55 -17 -102 -4 -108 15 -7 35 42 42 100 5 42 3 50
-10 50 -11 0 -20 -15 -28 -42z"/>
<path d="M3314 4389 c-10 -17 23 -46 37 -32 7 7 9 19 6 27 -7 18 -33 21 -43 5z"/>
<path d="M3319 4324 c-10 -12 -9 -18 3 -31 19 -18 38 -10 38 17 0 24 -25 33
-41 14z"/>
<path d="M4152 4108 c-16 -16 -16 -110 0 -126 7 -7 40 -12 78 -12 38 0 71 5
78 12 7 7 12 35 12 63 0 28 -5 56 -12 63 -16 16 -140 16 -156 0z m103 -58 c4
-6 -7 -10 -25 -10 -18 0 -29 4 -25 10 3 6 15 10 25 10 10 0 22 -4 25 -10z"/>
<path d="M2161 4036 c-19 -23 -10 -156 11 -170 23 -14 31 -4 39 52 l6 47 2
-41 c2 -87 61 -80 61 7 0 37 -5 51 -21 63 -12 8 -27 12 -34 10 -7 -3 -15 5
-19 20 -7 29 -27 34 -45 12z"/>
<path d="M2305 4008 c-13 -29 -15 -43 -7 -46 7 -2 12 -21 12 -42 0 -45 20 -65
55 -56 27 7 36 46 10 46 -9 0 -15 9 -15 25 0 14 5 25 10 25 6 0 10 9 10 20 0
11 -3 20 -8 20 -4 0 -12 10 -17 22 -16 35 -30 31 -50 -14z"/>
<path d="M2752 4033 c-19 -37 -35 -154 -23 -166 19 -19 42 15 57 89 8 37 12
74 10 81 -8 19 -34 16 -44 -4z"/>
<path d="M2831 4026 c-21 -53 -34 -147 -23 -158 8 -8 15 -8 25 1 17 13 51 146
43 167 -8 22 -36 17 -45 -10z"/>
<path d="M2655 3994 c-15 -15 -15 -18 1 -35 13 -15 20 -16 35 -6 24 15 24 34
0 47 -15 7 -24 6 -36 -6z"/>
<path d="M2655 3910 c-14 -16 -15 -22 -5 -35 17 -20 37 -19 49 4 8 14 6 22 -8
35 -16 15 -19 15 -36 -4z"/>
<path d="M3688 3649 c-14 -8 -18 -24 -18 -77 0 -40 5 -73 12 -80 7 -7 44 -12
98 -12 54 0 91 5 98 12 7 7 12 40 12 80 0 56 -3 69 -19 78 -25 13 -161 13
-183 -1z m122 -79 c0 -5 -13 -10 -30 -10 -16 0 -30 5 -30 10 0 6 14 10 30 10
17 0 30 -4 30 -10z"/>
<path d="M1075 3499 c-4 -12 -7 -60 -7 -106 0 -71 4 -89 20 -105 18 -18 20
-18 36 -3 10 11 16 33 16 66 0 27 5 49 10 49 6 0 10 -22 10 -48 0 -36 5 -54
19 -66 18 -17 20 -17 40 3 24 24 28 78 10 129 -11 31 -39 48 -70 44 -11 -2
-18 7 -22 28 -5 24 -12 30 -31 30 -16 0 -27 -7 -31 -21z"/>
<path d="M1282 3508 c-7 -7 -12 -22 -12 -35 0 -13 -4 -23 -10 -23 -5 0 -10 -9
-10 -19 0 -11 5 -23 10 -26 6 -3 10 -28 10 -54 0 -41 4 -51 26 -66 22 -14 31
-15 55 -5 34 15 40 49 9 57 -24 6 -28 58 -5 67 17 6 21 46 5 46 -5 0 -16 16
-24 35 -15 36 -33 44 -54 23z"/>
<path d="M1404 3506 c-3 -8 -7 -21 -8 -30 -1 -8 -5 -19 -9 -22 -11 -11 -8 -54
4 -54 6 0 8 -9 4 -20 -10 -33 5 -79 31 -97 21 -13 29 -14 49 -3 31 17 34 55 5
63 -24 6 -28 52 -5 61 8 3 15 14 15 25 0 10 -7 21 -15 25 -8 3 -15 14 -15 24
0 35 -45 58 -56 28z"/>
<path d="M1853 3493 c-6 -15 -15 -46 -21 -68 -6 -22 -15 -58 -21 -80 -9 -34
-8 -42 7 -58 15 -14 21 -15 35 -5 19 15 48 122 51 187 1 40 -2 46 -20 49 -15
2 -24 -5 -31 -25z"/>
<path d="M1956 3503 c-2 -10 -15 -60 -27 -112 -23 -91 -23 -93 -4 -107 16 -12
21 -12 36 2 9 8 19 25 22 37 26 108 36 164 31 179 -7 24 -51 24 -58 1z"/>
<path d="M1728 3456 c-24 -17 -23 -39 2 -61 19 -17 21 -17 40 0 11 10 20 25
20 33 0 13 -27 41 -40 41 -3 0 -13 -6 -22 -13z"/>
<path d="M1728 3346 c-24 -17 -23 -39 2 -61 19 -17 21 -17 40 0 24 21 25 41 6
61 -18 17 -26 17 -48 0z"/>
<path d="M3070 2990 c-17 -17 -20 -33 -20 -99 0 -109 2 -111 144 -111 74 0
116 4 124 12 8 8 12 46 12 105 0 113 0 113 -139 113 -88 0 -104 -3 -121 -20z
m170 -100 c0 -17 -7 -20 -45 -20 -38 0 -45 3 -45 20 0 17 7 20 45 20 38 0 45
-3 45 -20z"/>
<path d="M202 2865 c-7 -14 -12 -68 -12 -119 0 -77 3 -96 18 -109 43 -39 72
-7 72 79 0 24 5 44 10 44 6 0 10 -26 10 -58 0 -60 11 -82 42 -82 28 0 41 37
36 108 -3 53 -8 68 -28 84 -15 12 -32 17 -45 14 -18 -5 -24 0 -31 27 -13 43
-55 50 -72 12z"/>
<path d="M431 2871 c-6 -11 -11 -25 -11 -32 0 -7 -7 -20 -15 -29 -15 -17 -11
-50 6 -50 5 0 9 -24 9 -53 0 -59 19 -87 59 -87 58 0 84 52 36 70 -28 11 -35
57 -10 66 21 9 19 34 -8 85 -26 49 -50 60 -66 30z"/>
<path d="M572 2878 c-7 -7 -12 -22 -12 -34 0 -13 -4 -26 -10 -29 -12 -8 -13
-55 -1 -55 4 0 8 -25 8 -55 0 -43 5 -59 19 -70 23 -18 66 -19 82 -3 19 19 14
55 -8 61 -25 6 -29 67 -5 67 9 0 15 9 15 25 0 14 -7 28 -15 31 -8 4 -15 16
-15 28 0 24 -17 46 -35 46 -6 0 -16 -5 -23 -12z"/>
<path d="M1059 2868 c-7 -13 -16 -41 -21 -63 -33 -149 -32 -185 2 -185 24 0
43 40 60 125 7 33 15 69 20 80 11 29 -6 65 -29 65 -11 0 -26 -10 -32 -22z"/>
<path d="M1172 2863 c-11 -33 -26 -86 -44 -161 -10 -46 -10 -54 5 -70 29 -29
56 -3 75 73 30 116 34 136 28 160 -9 36 -50 35 -64 -2z"/>
<path d="M918 2816 c-21 -16 -22 -34 -4 -58 24 -32 76 -13 76 28 0 17 -27 43
-45 43 -5 0 -18 -6 -27 -13z"/>
<path d="M918 2696 c-43 -32 1 -90 48 -65 27 14 31 43 10 65 -18 17 -36 17
-58 0z"/>
<path d="M302 2348 c-17 -17 -17 -289 0 -306 17 -17 1559 -17 1576 0 17 17 17
289 0 306 -17 17 -1559 17 -1576 0z m1488 -153 l0 -65 -700 0 -700 0 0 65 0
65 700 0 700 0 0 -65z"/>
<path d="M2022 2308 c-8 -8 -12 -47 -12 -108 0 -61 4 -100 12 -108 17 -17 259
-17 276 0 16 16 16 200 0 216 -8 8 -53 12 -138 12 -85 0 -130 -4 -138 -12z
m188 -108 c0 -17 -7 -20 -50 -20 -43 0 -50 3 -50 20 0 17 7 20 50 20 43 0 50
-3 50 -20z"/>
<path d="M2392 2308 c-8 -8 -12 -47 -12 -108 0 -61 4 -100 12 -108 17 -17 259
-17 276 0 16 16 16 200 0 216 -8 8 -53 12 -138 12 -85 0 -130 -4 -138 -12z
m188 -108 c0 -17 -7 -20 -50 -20 -43 0 -50 3 -50 20 0 17 7 20 50 20 43 0 50
-3 50 -20z"/>
<path d="M320 1733 c-34 -12 -40 -36 -40 -160 0 -110 2 -125 20 -143 20 -20
33 -20 1183 -20 1036 0 1165 2 1185 16 21 14 22 22 22 149 0 127 -1 135 -22
149 -20 14 -147 16 -1178 15 -635 0 -1162 -3 -1170 -6z m2270 -158 l0 -55
-1100 0 -1100 0 0 55 0 55 1100 0 1100 0 0 -55z"/>
<path d="M366 1154 c-14 -13 -16 -67 -16 -434 l0 -419 22 -15 c19 -13 61 -16
261 -16 145 0 246 4 258 10 18 10 19 26 19 438 0 320 -3 431 -12 440 -9 9 -81
12 -264 12 -216 0 -255 -2 -268 -16z m444 -431 l0 -348 -180 0 -180 0 0 348 0
347 180 0 180 0 0 -347z"/>
<path d="M1037 1012 c-14 -15 -17 -41 -17 -141 0 -67 5 -131 10 -142 10 -19
30 -19 833 -19 627 0 826 3 835 12 8 8 12 55 12 143 0 115 -2 134 -18 148 -17
16 -89 17 -829 17 -772 0 -811 -1 -826 -18z m1573 -144 l0 -58 -745 0 -745 0
0 53 c0 30 2 56 4 58 2 2 338 4 745 4 l741 0 0 -57z"/>
<path d="M1042 618 c-8 -8 -12 -56 -12 -150 0 -126 2 -138 19 -148 27 -14
1615 -14 1642 0 17 10 19 22 19 148 0 94 -4 142 -12 150 -17 17 -1639 17
-1656 0z m1568 -145 l0 -58 -740 0 -740 0 0 58 0 57 740 0 740 0 0 -57z"/>
</g>
</svg>
